<svg xmlns="http://www.w3.org/2000/svg" xmlns:svg="http://www.w3.org/2000/svg" xmlns:xlink="http://www.w3.org/1999/xlink" id="svg2985" width="64" height="64" version="1.1"><defs id="defs2987"><linearGradient id="linearGradient3994"><stop id="stop3996" offset="0" style="stop-color:#fff;stop-opacity:.28333333"/><stop id="stop3998" offset="1" style="stop-color:#fff;stop-opacity:0"/></linearGradient><linearGradient id="linearGradient3982"><stop style="stop-color:#000;stop-opacity:.28333333" id="stop3984" offset="0"/><stop style="stop-color:#000;stop-opacity:0" id="stop3986" offset="1"/></linearGradient><linearGradient id="linearGradient3976"><stop style="stop-color:#9d9d9d;stop-opacity:1" id="stop3978" offset="0"/><stop style="stop-color:#515151;stop-opacity:1" id="stop3980" offset="1"/></linearGradient><linearGradient id="linearGradient3928"><stop style="stop-color:#000;stop-opacity:1" id="stop3930" offset="0"/><stop style="stop-color:#000;stop-opacity:0" id="stop3932" offset="1"/></linearGradient><linearGradient id="linearGradient3893"><stop id="stop3895" offset="0" style="stop-color:#fff;stop-opacity:1"/><stop id="stop3897" offset="1" style="stop-color:#fff;stop-opacity:0"/></linearGradient><linearGradient id="linearGradient3872"><stop id="stop3874" offset="0" style="stop-color:#9b9b9b;stop-opacity:1"/><stop id="stop3876" offset="1" style="stop-color:#515151;stop-opacity:1"/></linearGradient><linearGradient id="linearGradient3858"><stop id="stop3860" offset="0" style="stop-color:#9d9d9d;stop-opacity:1"/><stop id="stop3862" offset="1" style="stop-color:#515151;stop-opacity:1"/></linearGradient><linearGradient id="linearGradient3806"><stop id="stop3808" offset="0" style="stop-color:#797979;stop-opacity:1"/><stop id="stop3810" offset="1" style="stop-color:#1d1d1d;stop-opacity:1"/></linearGradient><linearGradient id="linearGradient3785"><stop style="stop-color:#dfeffa;stop-opacity:1" id="stop3787" offset="0"/><stop style="stop-color:#8fd0dd;stop-opacity:1" id="stop3789" offset="1"/></linearGradient><linearGradient id="linearGradient3837" x1="25" x2="25" y1="-40.379" y2="66.707" gradientTransform="matrix(0.94152047,0,0,0.94152047,2.0478803,1.8125002)" gradientUnits="userSpaceOnUse" xlink:href="#linearGradient3806"/><linearGradient id="linearGradient3856" x1="32.296" x2="32.296" y1="-12.132" y2="82.621" gradientTransform="translate(0.18750024,-0.06249976)" gradientUnits="userSpaceOnUse" xlink:href="#linearGradient3858"/><linearGradient id="linearGradient3870" x1="4.833" x2="57.364" y1="31.796" y2="31.796" gradientUnits="userSpaceOnUse" xlink:href="#linearGradient3872"/><linearGradient id="linearGradient3988" x1="-8.563" x2="24.347" y1="32.063" y2="32.063" gradientTransform="matrix(1.0572369,0,0,1.0572369,-65.633348,-1.8976585)" gradientUnits="userSpaceOnUse" xlink:href="#linearGradient3982"/><linearGradient id="linearGradient3992" x1="-8.563" x2="24.347" y1="32.063" y2="32.063" gradientTransform="matrix(1.0520336,0,0,1.0520336,-1.4678164,-1.7308258)" gradientUnits="userSpaceOnUse" xlink:href="#linearGradient3994"/><linearGradient id="linearGradient3811" x1="4.833" x2="57.364" y1="31.796" y2="31.796" gradientUnits="userSpaceOnUse" xlink:href="#linearGradient3872"/><radialGradient id="radialGradient3815" cx="33.302" cy="36.18" r="22.655" fx="33.302" fy="36.18" gradientUnits="userSpaceOnUse" xlink:href="#linearGradient3785"/><linearGradient id="linearGradient3817" x1="42.932" x2="42.932" y1="10.821" y2="65.472" gradientUnits="userSpaceOnUse" xlink:href="#linearGradient3872"/><linearGradient id="linearGradient3822" x1="24.781" x2="24.781" y1="1.434" y2="22.88" gradientTransform="matrix(0.46026463,0,0,0.42970756,7.4271428,6.7472191)" gradientUnits="userSpaceOnUse" xlink:href="#linearGradient3893"/><linearGradient id="linearGradient3829" x1="4.833" x2="57.364" y1="31.796" y2="31.796" gradientTransform="matrix(0.40856162,0,0,0.40856162,9.3119127,9.1148402)" gradientUnits="userSpaceOnUse" xlink:href="#linearGradient3872"/><linearGradient id="linearGradient3853" x1="4.833" x2="57.364" y1="31.796" y2="31.796" gradientUnits="userSpaceOnUse" xlink:href="#linearGradient3872"/><linearGradient id="linearGradient3855" x1="4.833" x2="57.364" y1="31.796" y2="31.796" gradientTransform="matrix(0.40856162,0,0,0.40856162,9.3119127,9.1148402)" gradientUnits="userSpaceOnUse" xlink:href="#linearGradient3872"/><radialGradient id="radialGradient3857" cx="33.302" cy="36.18" r="22.655" fx="33.302" fy="36.18" gradientUnits="userSpaceOnUse" xlink:href="#linearGradient3785"/><linearGradient id="linearGradient3859" x1="42.932" x2="42.932" y1="10.821" y2="65.472" gradientUnits="userSpaceOnUse" xlink:href="#linearGradient3872"/><linearGradient id="linearGradient3861" x1="24.781" x2="24.781" y1="1.434" y2="22.88" gradientTransform="matrix(0.46026463,0,0,0.42970756,7.4271428,6.7472191)" gradientUnits="userSpaceOnUse" xlink:href="#linearGradient3893"/><filter id="filter3909" width="1.354" height="1.744" x="-.177" y="-.372"><feGaussianBlur id="feGaussianBlur3911" stdDeviation="2.01"/></filter></defs><metadata id="metadata2990"/><g id="layer3" style="display:inline"><rect style="fill:url(#linearGradient3837);fill-opacity:1;fill-rule:evenodd;stroke:url(#linearGradient3856);stroke-width:3;stroke-miterlimit:4;stroke-opacity:1;stroke-dasharray:none" id="rect3796" width="57.55" height="57.55" x="3.225" y="3.225" rx="9.973" ry="9.973"/><rect style="fill:url(#linearGradient3992);fill-opacity:1;fill-rule:evenodd;stroke:none" id="rect3990" width="50.546" height="50.546" x="6.727" y="6.727" rx="8.759" ry="8.759" transform="matrix(0,1,1,0,0,0)"/><rect id="rect3934" width="50.796" height="50.796" x="-57.398" y="6.602" rx="8.802" ry="8.802" transform="matrix(0,-1,1,0,0,0)" style="fill:url(#linearGradient3988);fill-opacity:1;fill-rule:evenodd;stroke:none"/><g style="stroke:#d9d9d9;stroke-opacity:1;filter:url(#filter3909);opacity:.5" id="g3897" transform="translate(0.8224359,0)"><g id="g3899" transform="translate(-1.3258251,-0.625)"><path id="path3901" d="m 13.906842,39.380151 10.944222,6.482165 -10.944222,6.481212" style="fill:none;stroke:#d9d9d9;stroke-width:2.81494402999999993;stroke-linecap:round;stroke-linejoin:round;stroke-miterlimit:4;stroke-opacity:1;stroke-dasharray:none"/><path id="path3903" d="m 28.225659,52.183032 12.925591,0" style="fill:none;stroke:#d9d9d9;stroke-width:3;stroke-linecap:round;stroke-linejoin:miter;stroke-miterlimit:4;stroke-opacity:1;stroke-dasharray:none"/></g></g><g id="g3836" transform="translate(0.8224359,0)" style="stroke:#d9d9d9;stroke-opacity:1"><g id="g3863" transform="translate(-1.3258251,-0.625)"><path style="fill:none;stroke:#d9d9d9;stroke-width:2.81494403;stroke-linecap:round;stroke-linejoin:round;stroke-miterlimit:4;stroke-opacity:1;stroke-dasharray:none" id="path3832" d="m 13.906842,39.380151 10.944222,6.482165 -10.944222,6.481212"/><path style="fill:none;stroke:#d9d9d9;stroke-width:3;stroke-linecap:round;stroke-linejoin:miter;stroke-miterlimit:4;stroke-opacity:1;stroke-dasharray:none" id="path3834" d="m 28.225659,52.183032 12.925591,0"/></g></g></g><g id="layer2" style="display:inline"><g id="g3844" transform="matrix(1.17657,0,0,1.17657,15.390567,-0.6908116)"><path id="path3761" d="m 54.680941,36.179871 c 0,11.807304 -9.571711,21.379015 -21.379015,21.379015 -11.807304,0 -21.379015,-9.571711 -21.379015,-21.379015 0,-11.807304 9.571711,-21.379015 21.379015,-21.379015 11.807304,0 21.379015,9.571711 21.379015,21.379015 z" transform="matrix(0.5348481,0,0,0.5348481,2.8482789,1.2617217)" style="fill:none;stroke:url(#linearGradient3853);stroke-width:3.04912329;stroke-linecap:butt;stroke-linejoin:miter;stroke-miterlimit:4;stroke-opacity:1;stroke-dasharray:none;display:inline"/><path id="path3765" d="m 27.37132,27.556946 4.69235,4.69235" style="fill:none;stroke:url(#linearGradient3855);stroke-width:2.71802974;stroke-linecap:round;stroke-linejoin:miter;stroke-miterlimit:4;stroke-opacity:1;stroke-dasharray:none;display:inline"/><path style="fill:url(#radialGradient3857);fill-opacity:1;fill-rule:evenodd;stroke:url(#linearGradient3859);stroke-width:3.04912329;stroke-linecap:butt;stroke-linejoin:miter;stroke-miterlimit:4;stroke-opacity:1;stroke-dasharray:none;display:inline" id="path3783" d="m 54.680941,36.179871 c 0,11.807304 -9.571711,21.379015 -21.379015,21.379015 -11.807304,0 -21.379015,-9.571711 -21.379015,-21.379015 0,-11.807304 9.571711,-21.379015 21.379015,-21.379015 11.807304,0 21.379015,9.571711 21.379015,21.379015 z" transform="matrix(0.5348481,0,0,0.5348481,2.8482789,1.2617217)"/><g style="stroke:#3e3e3e;stroke-width:3;stroke-miterlimit:4;stroke-opacity:1;stroke-dasharray:none" id="g3846" transform="matrix(0.54360593,0,0,0.54360593,5.1888982,4.0486039)"><path style="fill:none;stroke:#3e3e3e;stroke-width:3;stroke-linecap:round;stroke-linejoin:round;stroke-miterlimit:4;stroke-opacity:1;stroke-dasharray:none" id="path3768" d="m 19.630426,41.811635 17.658514,0"/><path style="fill:#c16c19;fill-opacity:1;stroke:#3e3e3e;stroke-width:3;stroke-linecap:butt;stroke-linejoin:round;stroke-miterlimit:4;stroke-opacity:1;stroke-dasharray:none" id="path3774" d="m 30.975385,32.506478 c -0.430989,-4.034847 5.005698,-4.950329 5.005698,-9.054799 0,-5.427195 -2.149103,-6.428255 -7.576298,-6.428255 -5.427196,0 -7.35638,1.00106 -7.35638,6.428255 0,4.243896 5.796055,4.673593 5.022988,9.054799 -0.21555,1.221586 -4.033214,2.298967 -5.560798,4.801686 l 15.662505,0.01941 c -1.875966,-2.731602 -5.058822,-3.520806 -5.197715,-4.821098 z"/></g><path id="path3880" d="m 20.65975,10.775727 c -3.949418,0 -7.303736,2.354812 -8.558046,5.639912 l 17.116091,0 c -1.254308,-3.2851 -4.608628,-5.639912 -8.558045,-5.639912 z" style="fill:url(#linearGradient3861);fill-opacity:1;fill-rule:evenodd;stroke:none;display:inline"/></g></g></svg>